<svg xmlns="http://www.w3.org/2000/svg" width="1em" height="1em" fill="currentColor" stroke="currentColor" stroke-width="0" data-jsxid="app/components/Sidebar.tsx:Sidebar:default:152,20" viewBox="0 0 16 16"><path stroke="none" d="m4.5 1-.5.5v1.527a4.551 4.551 0 0 1 1 0V2h9v5h-1.707L11 8.293V7H8.973a4.551 4.551 0 0 1 0 1H10v1.5l.854.354L12.707 8H14.5l.5-.5v-6l-.5-.5h-10Z"/><path fill-rule="evenodd" stroke="none" d="M6.417 10.429a3.5 3.5 0 1 0-3.834 0A4.501 4.501 0 0 0 0 14.5v.5h1v-.5a3.502 3.502 0 0 1 7 0v.5h1v-.5a4.501 4.501 0 0 0-2.583-4.071ZM4.5 10a2.5 2.5 0 1 1 0-5 2.5 2.5 0 0 1 0 5Z" clip-rule="evenodd"/></svg>